<svg xmlns="http://www.w3.org/2000/svg" width="116" height="35" viewBox="0 0 116 35">
    <g fill="none" fill-rule="evenodd">
        <path fill="#FFF" d="M55.291 26.147c-1.748 0-3.2-.318-4.358-.954A8.935 8.935 0 0 1 48 22.604l2.185-1.725c.613.997 1.342 1.729 2.185 2.197.843.467 1.794.701 2.852.701 1.135 0 1.99-.245 2.564-.736.576-.49.863-1.12.863-1.886 0-.506-.123-.916-.368-1.23a2.864 2.864 0 0 0-.977-.782 6.142 6.142 0 0 0-1.404-.495 113.05 113.05 0 0 0-1.644-.368 35.406 35.406 0 0 1-1.932-.471 6.075 6.075 0 0 1-1.725-.76 3.88 3.88 0 0 1-1.23-1.288c-.315-.529-.472-1.215-.472-2.058 0-.66.142-1.28.425-1.863a4.689 4.689 0 0 1 1.197-1.53 5.825 5.825 0 0 1 1.828-1.034 6.836 6.836 0 0 1 2.323-.38c1.441 0 2.664.25 3.669.748 1.004.498 1.912 1.207 2.725 2.127l-2.07 1.633a7.027 7.027 0 0 0-.782-.909 4.709 4.709 0 0 0-.931-.701 4.509 4.509 0 0 0-1.15-.46 5.95 5.95 0 0 0-1.461-.161c-1.135 0-1.951.234-2.45.702-.498.467-.747 1.069-.747 1.805 0 .43.115.778.345 1.046.23.269.537.491.92.668.383.176.824.321 1.322.437.499.115 1.024.226 1.576.333.66.138 1.322.303 1.99.495a6.205 6.205 0 0 1 1.794.828c.529.36.962.827 1.299 1.402.337.576.506 1.323.506 2.243 0 .644-.13 1.269-.391 1.875a4.6 4.6 0 0 1-1.15 1.598c-.506.46-1.127.832-1.863 1.115-.736.284-1.58.426-2.53.426zm13.988.023c-.874 0-1.69-.161-2.45-.483a4.29 4.29 0 0 1-1.828-1.426v6.624h-2.415V13.497h2.415v1.84a5.032 5.032 0 0 1 1.852-1.53 5.397 5.397 0 0 1 2.426-.563 6.123 6.123 0 0 1 4.336 1.771 6.3 6.3 0 0 1 1.368 2.035c.337.79.506 1.676.506 2.657 0 .966-.172 1.848-.517 2.645a6.42 6.42 0 0 1-1.38 2.047 6.072 6.072 0 0 1-1.99 1.311 6.093 6.093 0 0 1-2.323.46zm-.345-2.277a3.997 3.997 0 0 0 2.898-1.219c.368-.383.655-.832.863-1.346.207-.513.31-1.061.31-1.644s-.103-1.13-.31-1.645a4.042 4.042 0 0 0-.863-1.334 4.031 4.031 0 0 0-2.898-1.207c-.583 0-1.123.111-1.621.334a4.188 4.188 0 0 0-1.3.896c-.368.376-.655.82-.863 1.334a4.297 4.297 0 0 0-.31 1.622c0 .583.103 1.13.31 1.644.208.514.495.959.863 1.335.368.375.801.674 1.3.896a3.934 3.934 0 0 0 1.621.334zm7.778-10.396h2.438v2.162c.26-.782.69-1.368 1.288-1.76.598-.39 1.296-.586 2.093-.586.43 0 .824.042 1.184.127.36.084.664.203.909.356l-.966 2.392c-.368-.245-.89-.368-1.564-.368-.89 0-1.595.238-2.116.713-.521.475-.782 1.273-.782 2.392v6.992h-2.484v-12.42zm8.767 0h2.507v12.42h-2.507v-12.42zm-.506-3.726c0-.506.165-.928.494-1.265.33-.337.748-.506 1.254-.506.521 0 .947.169 1.276.506.33.337.495.759.495 1.265 0 .506-.165.928-.495 1.265-.33.337-.755.506-1.276.506s-.943-.169-1.265-.506c-.322-.337-.483-.759-.483-1.265zm4.788 3.726h2.438v1.725a4.805 4.805 0 0 1 1.644-1.438c.668-.36 1.438-.54 2.312-.54.782 0 1.491.126 2.127.38a4.385 4.385 0 0 1 1.61 1.08c.438.468.775 1.043 1.013 1.726.237.682.356 1.445.356 2.288v7.199h-2.507v-7.015c0-1.058-.268-1.901-.805-2.53-.537-.629-1.326-.943-2.369-.943-.475 0-.916.084-1.323.253-.406.169-.758.41-1.058.725a3.335 3.335 0 0 0-.701 1.15 4.283 4.283 0 0 0-.253 1.506v6.854h-2.484v-12.42zM108.74 26.17a6.15 6.15 0 0 1-2.346-.46 6.072 6.072 0 0 1-1.99-1.311 6.42 6.42 0 0 1-1.38-2.047c-.345-.797-.517-1.679-.517-2.645 0-.981.169-1.867.506-2.657a6.3 6.3 0 0 1 1.368-2.035 6.042 6.042 0 0 1 2.001-1.311 6.295 6.295 0 0 1 2.381-.46c.828 0 1.621.18 2.38.54.76.36 1.377.863 1.852 1.507v-1.794h2.484v11.431c0 .92-.165 1.76-.495 2.518a5.888 5.888 0 0 1-1.356 1.955 6.111 6.111 0 0 1-2.025 1.265 6.868 6.868 0 0 1-2.495.449c-1.503 0-2.74-.222-3.715-.667a6.68 6.68 0 0 1-2.472-1.932l2.001-1.633c.49.675 1.05 1.17 1.679 1.483.629.315 1.449.472 2.461.472.598 0 1.138-.092 1.621-.276a3.57 3.57 0 0 0 1.242-.782 3.55 3.55 0 0 0 .806-1.207c.191-.468.287-.986.287-1.553v-.966a4.922 4.922 0 0 1-1.863 1.553 5.42 5.42 0 0 1-2.415.563zm.322-2.277c.583 0 1.123-.111 1.621-.334a4.05 4.05 0 0 0 1.288-.896c.36-.376.644-.82.852-1.335.207-.513.31-1.061.31-1.644 0-.567-.103-1.108-.31-1.622a4.138 4.138 0 0 0-.851-1.334 4.05 4.05 0 0 0-1.288-.897 3.934 3.934 0 0 0-1.622-.333 4.031 4.031 0 0 0-2.921 1.208c-.368.375-.655.82-.863 1.334a4.358 4.358 0 0 0-.31 1.644c0 .583.103 1.13.31 1.644.208.514.495.963.863 1.346.368.383.801.682 1.3.897a4.055 4.055 0 0 0 1.621.322z"/>
        <path fill="#2D5EFF" d="M18.857 32.103v-4.4l14.7-8.488v4.402l-14.7 8.486zM2.424 19.215l9.174 5.297v4.401l-9.174-5.296v-4.402zM17.99 2.396l3.705 2.14-5.236 3.022c-.11.064-.11.168 0 .231l1.333.77c.11.064.29.064.4 0l5.236-3.023 9.261 5.347-11.024 6.365-3.675 2.122-3.675-2.122-.117-.068 5.36-3.092c.11-.064.11-.167 0-.23l-1.333-.77a.443.443 0 0 0-.4 0l-5.36 3.091-9.174-5.296L17.99 2.396zm.867 18.475l14.7-8.487v4.83l-14.7 8.487v-4.83zM2.424 12.384l9.174 5.296v4.83l-9.174-5.296v-4.83zm14.7 15.318v4.401l-3.793-2.19v-4.4l3.792 2.19zm-3.793-4.19V18.68l.118.068 3.674 2.122v4.83l-3.792-2.19zm21.959-12.63a.867.867 0 0 0-.434-.75L18.423.645a.866.866 0 0 0-.866 0L1.124 10.132a.867.867 0 0 0-.433.75v13.235c0 .31.165.596.433.75l16.433 9.488a.864.864 0 0 0 .866 0l16.433-9.487a.867.867 0 0 0 .434-.75V10.882z"/>
    </g>
</svg>
